<?xml version="1.0" encoding="iso-8859-1"?>
<!-- Generator: Adobe Illustrator 26.3.1, SVG Export Plug-In . SVG Version: 6.00 Build 0)  -->
<svg version="1.1" id="Layer_1" xmlns="http://www.w3.org/2000/svg" xmlns:xlink="http://www.w3.org/1999/xlink" x="0px" y="0px"
	 viewBox="0 0 25.114 25.114" style="enable-background:new 0 0 25.114 25.114;" xml:space="preserve">
<path style="fill:#F2F2F2;" d="M22.423,0H2.691C1.205,0,0,1.205,0,2.691c0,0,0,0,0,0v19.732c0,1.486,1.205,2.691,2.691,2.691l0,0
	h19.732c1.486,0,2.691-1.205,2.691-2.691l0,0V2.691C25.114,1.205,23.909,0,22.423,0L22.423,0z M19.682,8.9
	c0.011,0.157,0.011,0.32,0.011,0.476c0.039,5.738-4.58,10.421-10.318,10.46c-0.047,0-0.095,0-0.142,0
	c-2.001,0.005-3.961-0.566-5.645-1.646c0.294,0.032,0.59,0.047,0.886,0.045c1.654,0.003,3.261-0.55,4.563-1.57
	c-1.573-0.028-2.954-1.053-3.437-2.55c0.551,0.096,1.117,0.074,1.659-0.065c-1.715-0.349-2.946-1.86-2.943-3.61v-0.045
	c0.508,0.284,1.077,0.444,1.659,0.465c-1.024-0.681-1.639-1.831-1.637-3.061c-0.003-0.652,0.17-1.293,0.5-1.855
	C6.704,8.243,9.46,9.641,12.417,9.79c-0.462-1.981,0.769-3.962,2.751-4.425c1.28-0.298,2.621,0.107,3.521,1.065
	c0.823-0.157,1.612-0.457,2.332-0.886c-0.274,0.848-0.848,1.568-1.614,2.024c0.731-0.083,1.445-0.276,2.119-0.572
	c-0.5,0.737-1.124,1.382-1.844,1.906L19.682,8.9z"/>
</svg>
